<svg height="1886" width="720" xmlns="http://www.w3.org/2000/svg">
<rect height="1886" fill="#555" width="720"></rect>
<text fill="#7f7" font-family="Courier New" font-size="12" xml:space="preserve">
<tspan x="10" y="26"></tspan>
<tspan x="10" y="42">&gt; npmdoc-gulp-jsdoc@0.0.1 test /home/travis/build/npmdoc/node-npmdoc-gulp-jsdoc</tspan>
<tspan x="10" y="58">&gt; (set -e; export PORT=$(utility2 shServerPortRandom); utility2 test test.js)</tspan>
<tspan x="10" y="74"></tspan>
<tspan x="10" y="90"></tspan>
<tspan x="10" y="106">[MODE_BUILD=npmTest] - 2017-04-07T23:24:15Z - npm-testing /home/travis/build/npmdoc/node-npmdoc-\</tspan>
<tspan x="10" y="122">gulp-jsdoc</tspan>
<tspan x="10" y="138"></tspan>
<tspan x="10" y="154"></tspan>
<tspan x="10" y="170">covering $ /home/travis/.nvm/versions/node/v6.10.2/bin/node /home/travis/build/npmdoc/node-npmdo\</tspan>
<tspan x="10" y="186">c-gulp-jsdoc/test.js</tspan>
<tspan x="10" y="202">merging file:///home/travis/build/npmdoc/node-npmdoc-gulp-jsdoc/tmp/build/test-report.json to te\</tspan>
<tspan x="10" y="218">st-report</tspan>
<tspan x="10" y="234">&gt; server listening on http-port 34039</tspan>
<tspan x="10" y="250">created apidoc file:///home/travis/build/npmdoc/node-npmdoc-gulp-jsdoc/tmp/build/apidoc.html</tspan>
<tspan x="10" y="266"></tspan>
<tspan x="10" y="282"></tspan>
<tspan x="10" y="298">browserTest - created electron entry-page /home/travis/build/npmdoc/node-npmdoc-gulp-jsdoc/tmp/e\</tspan>
<tspan x="10" y="314">lectron.15b4abb88e80.54a1610d6e204.html</tspan>
<tspan x="10" y="330"></tspan>
<tspan x="10" y="346">[node test-case 1 of 6 passed] - testCase_buildLib_default</tspan>
<tspan x="10" y="362">[node test-case 2 of 6 passed] - testCase_buildReadme_default</tspan>
<tspan x="10" y="378">[node test-case 3 of 6 passed] - testCase_buildTest_default</tspan>
<tspan x="10" y="394"></tspan>
<tspan x="10" y="410">browserTest - created electron entry-page /home/travis/build/npmdoc/node-npmdoc-gulp-jsdoc/tmp/e\</tspan>
<tspan x="10" y="426">lectron.15b4abb89170.8b6b4be5a5e2f.html</tspan>
<tspan x="10" y="442"></tspan>
<tspan x="10" y="458">Xlib:  extension "RANDR" missing on display ":99.0".</tspan>
<tspan x="10" y="474">Xlib:  extension "RANDR" missing on display ":99.0".</tspan>
<tspan x="10" y="490">&gt; server listening on http-port 39870</tspan>
<tspan x="10" y="506">merging file:///home/travis/build/npmdoc/node-npmdoc-gulp-jsdoc/tmp/build/test-report.json to te\</tspan>
<tspan x="10" y="522">st-report</tspan>
<tspan x="10" y="538">Xlib:  extension "RANDR" missing on display ":99.0".</tspan>
<tspan x="10" y="554">[5875:0407/232416:WARNING:audio_manager.cc(314)] Multiple instances of AudioManager detected</tspan>
<tspan x="10" y="570">[5875:0407/232416:WARNING:audio_manager.cc(275)] Multiple instances of AudioManager detected</tspan>
<tspan x="10" y="586">[5912:0407/232416:ERROR:sandbox_linux.cc(343)] InitializeSandbox() called with multiple threads \</tspan>
<tspan x="10" y="602">in process gpu-process. </tspan>
<tspan x="10" y="618">merging file:///home/travis/build/npmdoc/node-npmdoc-gulp-jsdoc/tmp/build/test-report.json to te\</tspan>
<tspan x="10" y="634">st-report</tspan>
<tspan x="10" y="650">Xlib:  extension "RANDR" missing on display ":99.0".</tspan>
<tspan x="10" y="666">[5879:0407/232416:WARNING:audio_manager.cc(314)] Multiple instances of AudioManager detected</tspan>
<tspan x="10" y="682">[5879:0407/232416:WARNING:audio_manager.cc(275)] Multiple instances of AudioManager detected</tspan>
<tspan x="10" y="698">[5937:0407/232416:ERROR:sandbox_linux.cc(343)] InitializeSandbox() called with multiple threads \</tspan>
<tspan x="10" y="714">in process gpu-process. </tspan>
<tspan x="10" y="730">[5879:0407/232416:ERROR:browser_gpu_channel_host_factory.cc(131)] Failed to create channel.</tspan>
<tspan x="10" y="746"></tspan>
<tspan x="10" y="762">browserTest - opened url /home/travis/build/npmdoc/node-npmdoc-gulp-jsdoc/tmp/build/apidoc.html</tspan>
<tspan x="10" y="778"></tspan>
<tspan x="10" y="794"></tspan>
<tspan x="10" y="810">browserTest - opened url http://127.0.0.1:34039?modeTest=1</tspan>
<tspan x="10" y="826"></tspan>
<tspan x="10" y="842">[5879:0407/232418:INFO:CONSOLE(249)] "----------|-----------|-----------|-----------|-----------\</tspan>
<tspan x="10" y="858">|</tspan>
<tspan x="10" y="874">File      |   % Stmts |% Branches |   % Funcs |   % Lines |</tspan>
<tspan x="10" y="890">----------|-----------|-----------|-----------|-----------|</tspan>
<tspan x="10" y="906">----------|-----------|-----------|-----------|-----------|</tspan>
<tspan x="10" y="922">All files |       100 |       100 |       100 |       100 |</tspan>
<tspan x="10" y="938">----------|-----------|-----------|-----------|-----------|</tspan>
<tspan x="10" y="954">", source: file:///home/travis/build/npmdoc/node-npmdoc-gulp-jsdoc/tmp/electron.15b4abb89170.8b6\</tspan>
<tspan x="10" y="970">b4be5a5e2f.html (249)</tspan>
<tspan x="10" y="986">[5879:0407/232418:INFO:CONSOLE(249)] "created coverage file:///tmp/build/coverage.html/index.htm\</tspan>
<tspan x="10" y="1002">l", source: file:///home/travis/build/npmdoc/node-npmdoc-gulp-jsdoc/tmp/electron.15b4abb89170.8b\</tspan>
<tspan x="10" y="1018">6b4be5a5e2f.html (249)</tspan>
<tspan x="10" y="1034">[node test-case 4 of 6 passed] - testCase_buildApp_default</tspan>
<tspan x="10" y="1050"></tspan>
<tspan x="10" y="1066">browserTest - exit-code 1 - /home/travis/build/npmdoc/node-npmdoc-gulp-jsdoc/tmp/build/apidoc.ht\</tspan>
<tspan x="10" y="1082">ml</tspan>
<tspan x="10" y="1098"></tspan>
<tspan x="10" y="1114">[node test-case 5 of 6 passed] - testCase_buildApidoc_default</tspan>
<tspan x="10" y="1130"></tspan>
<tspan x="10" y="1146">browserTest - created screenCapture file:///home/travis/build/npmdoc/node-npmdoc-gulp-jsdoc/tmp/\</tspan>
<tspan x="10" y="1162">build/screenCapture.%2F.png</tspan>
<tspan x="10" y="1178"></tspan>
<tspan x="10" y="1194">browserTest - created screenCapture file:///home/travis/build/npmdoc/node-npmdoc-gulp-jsdoc/tmp/\</tspan>
<tspan x="10" y="1210">build/screenCapture.%2F.html</tspan>
<tspan x="10" y="1226"></tspan>
<tspan x="10" y="1242">browserTest - exit-code 0 - http://127.0.0.1:34039?modeTest=1</tspan>
<tspan x="10" y="1258"></tspan>
<tspan x="10" y="1274"></tspan>
<tspan x="10" y="1290">browserTest - merged coverage from /home/travis/build/npmdoc/node-npmdoc-gulp-jsdoc/tmp/coverage\</tspan>
<tspan x="10" y="1306">.%2F.json</tspan>
<tspan x="10" y="1322"></tspan>
<tspan x="10" y="1338"></tspan>
<tspan x="10" y="1354">browserTest - merging test-report from /home/travis/build/npmdoc/node-npmdoc-gulp-jsdoc/tmp/test\</tspan>
<tspan x="10" y="1370">-report.%2F.json</tspan>
<tspan x="10" y="1386"></tspan>
<tspan x="10" y="1402">[node test-case 6 of 6 passed] - testCase_webpage_default</tspan>
<tspan x="10" y="1418">-------------------------------|-----------|-----------|-----------|-----------|</tspan>
<tspan x="10" y="1434">File                           |   % Stmts |% Branches |   % Funcs |   % Lines |</tspan>
<tspan x="10" y="1450">-------------------------------|-----------|-----------|-----------|-----------|</tspan>
<tspan x="10" y="1466">   node-npmdoc-gulp-jsdoc/     |       100 |       100 |       100 |       100 |</tspan>
<tspan x="10" y="1482">      example.js               |       100 |       100 |       100 |       100 |</tspan>
<tspan x="10" y="1498">      lib.npmdoc_gulp_jsdoc.js |       100 |       100 |       100 |       100 |</tspan>
<tspan x="10" y="1514">      test.js                  |       100 |       100 |       100 |       100 |</tspan>
<tspan x="10" y="1530">-------------------------------|-----------|-----------|-----------|-----------|</tspan>
<tspan x="10" y="1546">All files                      |       100 |       100 |       100 |       100 |</tspan>
<tspan x="10" y="1562">-------------------------------|-----------|-----------|-----------|-----------|</tspan>
<tspan x="10" y="1578"></tspan>
<tspan x="10" y="1594">created coverage file:///home/travis/build/npmdoc/node-npmdoc-gulp-jsdoc/tmp/build/coverage.html\</tspan>
<tspan x="10" y="1610">/index.html</tspan>
<tspan x="10" y="1626">merging file:///home/travis/build/npmdoc/node-npmdoc-gulp-jsdoc/tmp/build/test-report.json to te\</tspan>
<tspan x="10" y="1642">st-report</tspan>
<tspan x="10" y="1658"></tspan>
<tspan x="10" y="1674">-------------------------------------------------------</tspan>
<tspan x="10" y="1690">| test-report - buildNpmdoc - node - linux v6.10.2 - 2017-04-07T23:23:37.742Z</tspan>
<tspan x="10" y="1706">|   52941 ms            0 failed        6 passed      |</tspan>
<tspan x="10" y="1722">-------------------------------------------------------</tspan>
<tspan x="10" y="1738"></tspan>
<tspan x="10" y="1754">created test-report file:///home/travis/build/npmdoc/node-npmdoc-gulp-jsdoc/tmp/build/test-repor\</tspan>
<tspan x="10" y="1770">t.html</tspan>
<tspan x="10" y="1786"></tspan>
<tspan x="10" y="1802"></tspan>
<tspan x="10" y="1818">npmTest - 0 failed tests</tspan>
<tspan x="10" y="1834"></tspan>
<tspan x="10" y="1850"></tspan>
<tspan x="10" y="1866">[MODE_BUILD=npmTest] - 2017-04-07T23:24:33Z - EXIT_CODE - 0</tspan>
</text>
</svg>
